<?xml version="1.0" encoding="UTF-8"?>
<svg id="Layer_1" data-name="Layer 1" xmlns="http://www.w3.org/2000/svg" viewBox="0 0 245.82 80">
  <defs>
    <style>
      .cls-1 {
        font-family: ArialMT, Arial;
        font-size: 18.24px;
      }

      .cls-2 {
        font-family: Arial-Black, Arial;
        font-size: 27.36px;
        font-weight: 800;
      }

      .cls-3 {
        letter-spacing: 0em;
      }

      .cls-4 {
        fill: #fff;
      }

      .cls-4, .cls-5, .cls-6, .cls-7 {
        stroke-width: 0px;
      }

      .cls-5, .cls-8 {
        fill: #333132;
      }

      .cls-9 {
        letter-spacing: -.07em;
      }

      .cls-6 {
        fill: #c3272f;
      }

      .cls-7 {
        fill: #ec1e28;
      }
    </style>
  </defs>
  <text class="cls-8" transform="translate(131.51 39.55)"><tspan class="cls-2"><tspan x="0" y="0">CITI</tspan></tspan><tspan class="cls-1"><tspan class="cls-9" x="0" y="18.44">P</tspan><tspan class="cls-3" x="10.81" y="18.44">ACKAGING</tspan></tspan></text>
  <g>
    <polygon class="cls-5" points="23.77 39.82 67.57 14.33 110.12 39.1 66.31 64.77 23.77 39.82"/>
    <polygon class="cls-7" points="23.77 39.82 67.57 14.33 51.59 5.35 7.79 30.66 23.77 39.82"/>
    <polygon class="cls-6" points="67.57 14.33 110.12 39.1 125.92 30.49 82.11 5.35 67.57 14.33"/>
    <path class="cls-4" d="M60.57,43.59c-1.93,4.69-6.54,8-11.93,8-7.12,0-12.9-5.77-12.9-12.9s5.77-12.9,12.9-12.9c5.33,0,9.91,3.24,11.87,7.85h11.37c-2.31-10.57-11.72-18.49-22.99-18.49-13,0-23.53,10.54-23.53,23.53s10.54,23.53,23.53,23.53c11.32,0,20.77-7.99,23.02-18.64h-11.35Z"/>
    <rect class="cls-4" x="74.81" y="17.32" width="11.61" height="43.57"/>
    <path class="cls-4" d="M95.01,17.32h-11.28v31.06h11.28c8.58,0,15.53-6.95,15.53-15.53s-6.95-15.53-15.53-15.53ZM98.81,33.45c0,2.73-2.21,4.94-4.94,4.94h-7.45v-11.55h7.45c2.73,0,4.94,2.21,4.94,4.94v1.68Z"/>
    <polygon class="cls-7" points="66.31 64.77 82.29 74.65 125.92 48.44 110.12 39.1 66.31 64.77"/>
    <polygon class="cls-6" points="7.79 48.8 51.95 74.65 66.31 64.77 23.77 39.82 7.79 48.8"/>
  </g>
</svg>