<?xml version="1.0" encoding="UTF-8"?><svg id="uuid-908418cd-1170-4fb5-ace1-f6ecabbc060f" xmlns="http://www.w3.org/2000/svg" viewBox="0 0 296.31 82.11"><defs><style>.uuid-22221bc3-1d27-4921-93c6-e3c86cab6579{fill:#00355a;}.uuid-22221bc3-1d27-4921-93c6-e3c86cab6579,.uuid-861a7b72-1838-412a-a6a9-d4b92b07a95b,.uuid-df3af438-3996-4714-b0a9-5c525af1b6d0,.uuid-4bf6e710-b7e3-408a-a016-7f4b7af2ae36{stroke-width:0px;}.uuid-df3af438-3996-4714-b0a9-5c525af1b6d0{fill:#2e3091;}.uuid-4bf6e710-b7e3-408a-a016-7f4b7af2ae36{fill:#ff8c44;}</style></defs><path class="uuid-df3af438-3996-4714-b0a9-5c525af1b6d0" d="m72.42,22.51l.15,37.35c0,1.33-.7,2.56-1.86,3.22l-32.42,18.55c-1.14.65-2.54.65-3.68,0L1.99,62.79c-1.14-.66-1.84-1.87-1.85-3.18L0,22.26c0-1.33.7-2.56,1.86-3.22L34.28.49c1.14-.65,2.54-.65,3.68,0l32.61,18.83c1.14.66,1.84,1.87,1.85,3.18Z"/><path class="uuid-22221bc3-1d27-4921-93c6-e3c86cab6579" d="m37.12,70.54c-.19,0-.38-.05-.55-.15l-24.83-14.34c-.34-.19-.55-.56-.55-.95v-28.67c0-.39.21-.75.55-.95.34-.2.75-.2,1.09,0l24.83,14.34c.34.19.55.56.55.95v28.67c0,.39-.21.75-.55.95-.17.1-.36.15-.55.15Zm-23.74-16.06l22.64,13.08v-26.15l-22.64-13.07v26.15Z"/><path class="uuid-4bf6e710-b7e3-408a-a016-7f4b7af2ae36" d="m37.12,70.54c-.19,0-.38-.05-.55-.15l-24.83-14.34c-.34-.19-.55-.56-.55-.95v-28.67c0-.39.21-.75.55-.95l24.83-14.34c.34-.2.75-.2,1.09,0l24.83,14.34c.34.19.55.56.55.95v28.67c0,.39-.21.75-.55.95l-24.83,14.34c-.17.1-.36.15-.55.15Zm-23.74-16.06l23.74,13.71,23.74-13.71v-27.41l-23.74-13.71-23.74,13.71v27.41Z"/><path class="uuid-4bf6e710-b7e3-408a-a016-7f4b7af2ae36" d="m37.12,70.54c-.19,0-.38-.05-.55-.15-.34-.19-.55-.56-.55-.95v-28.67c0-.39.21-.75.55-.95l24.83-14.34c.34-.2.75-.2,1.09,0,.34.19.55.56.55.95v28.67c0,.39-.21.75-.55.95l-24.83,14.34c-.17.1-.36.15-.55.15Zm1.09-29.13v26.15l22.65-13.08v-26.15l-22.65,13.07Z"/><path class="uuid-4bf6e710-b7e3-408a-a016-7f4b7af2ae36" d="m37.12,41.87c-.19,0-.38-.05-.55-.15l-24.83-14.34c-.34-.2-.55-.56-.55-.95s.21-.75.55-.95l24.83-14.34c.34-.2.75-.2,1.09,0l24.83,14.34c.34.19.55.56.55.95s-.21.75-.55.95l-24.83,14.34c-.17.1-.36.15-.55.15Zm-22.64-15.43l22.64,13.07,22.65-13.07-22.65-13.07-22.64,13.07Z"/><path class="uuid-4bf6e710-b7e3-408a-a016-7f4b7af2ae36" d="m37.12,41.87c-.19,0-.38-.05-.55-.15l-12.67-7.32c-.34-.19-.55-.56-.55-.95s.21-.75.55-.95l12.67-7.32c.34-.2.75-.2,1.09,0l12.67,7.32c.34.19.55.56.55.95s-.21.75-.55.95l-12.67,7.32c-.17.1-.36.15-.55.15Zm-10.49-8.41l10.49,6.06,10.49-6.06-10.49-6.06-10.49,6.06Z"/><polygon class="uuid-4bf6e710-b7e3-408a-a016-7f4b7af2ae36" points="12.29 26.44 7.4 40.18 32.23 54.52 37.12 40.78 12.29 26.44"/><path class="uuid-4bf6e710-b7e3-408a-a016-7f4b7af2ae36" d="m32.23,55.61c-.19,0-.38-.05-.55-.15l-24.83-14.33c-.46-.26-.66-.82-.48-1.31l4.89-13.74c.11-.31.35-.55.65-.66.3-.11.64-.08.92.08l24.83,14.34c.46.26.66.82.48,1.31l-4.89,13.74c-.11.31-.35.55-.65.66-.12.05-.25.07-.38.07Zm-23.49-15.92l22.91,13.22,4.15-11.65-22.91-13.23-4.15,11.65Z"/><polygon class="uuid-4bf6e710-b7e3-408a-a016-7f4b7af2ae36" points="61.95 26.44 66.85 40.18 42.02 54.52 37.12 40.78 61.95 26.44"/><path class="uuid-4bf6e710-b7e3-408a-a016-7f4b7af2ae36" d="m42.02,55.61c-.13,0-.26-.02-.38-.07-.3-.11-.54-.35-.65-.66l-4.89-13.74c-.18-.5.03-1.05.48-1.31l24.83-14.34c.28-.16.62-.19.92-.08.3.11.54.35.65.66l4.89,13.74c.18.5-.03,1.05-.48,1.31l-24.83,14.34c-.17.1-.36.15-.55.15Zm-3.56-14.34l4.15,11.65,22.91-13.23-4.15-11.65-22.91,13.23Z"/><path class="uuid-861a7b72-1838-412a-a6a9-d4b92b07a95b" d="m83.42,28.53l-.02-4.84,16.41-.06c2.51,0,4.48.34,5.92,1.04,1.44.7,2.55,1.72,3.32,3.04.78,1.33,1.17,2.78,1.18,4.37,0,1.15-.2,2.25-.6,3.28-.41,1.04-.99,1.95-1.76,2.75-.77.8-1.78,1.46-3.04,1.98,1.35.41,2.39.87,3.11,1.37,1.04.7,1.86,1.68,2.47,2.93.61,1.26.92,2.67.93,4.22,0,1.85-.45,3.56-1.37,5.13-.92,1.57-2.22,2.76-3.91,3.59-1.68.83-4.16,1.24-7.41,1.26l-15.14.06-.02-4.84h1.14c.76,0,1.27-.09,1.54-.25s.46-.39.57-.68c.11-.29.16-.95.16-1.97l-.08-19.49c0-1.04-.06-1.7-.17-1.98-.11-.28-.3-.51-.57-.67s-.79-.25-1.54-.24h-1.14Zm10.6,9.28h3.17c1.66-.02,2.88-.19,3.67-.53.79-.34,1.39-.84,1.79-1.52.4-.68.6-1.46.59-2.35,0-.92-.2-1.7-.58-2.35-.38-.65-.93-1.11-1.65-1.38-.72-.27-2-.41-3.85-.4h-3.17s.03,8.53.03,8.53Zm.02,5.14l.03,7.57c.02,1.07.05,1.7.11,1.88.07.23.18.4.34.49.16.09.59.14,1.29.13h2.11c1.23-.01,2.24-.15,3.05-.43.8-.28,1.49-.85,2.05-1.72s.84-1.92.83-3.14c0-1.04-.21-1.91-.61-2.63-.4-.72-1-1.26-1.8-1.62-.8-.36-2.02-.54-3.66-.54h-3.74Z"/><path class="uuid-861a7b72-1838-412a-a6a9-d4b92b07a95b" d="m126.16,32.88c2.36,0,4.42.54,6.18,1.65,1.76,1.11,3.11,2.63,4.07,4.56.95,1.93,1.43,4.18,1.44,6.77.02,3.91-1.02,7.09-3.11,9.53s-4.89,3.68-8.39,3.69c-3.58.01-6.42-1.2-8.55-3.65-2.05-2.33-3.09-5.49-3.1-9.48,0-2.62.45-4.88,1.37-6.77.93-1.89,2.27-3.41,4.03-4.56,1.76-1.15,3.78-1.73,6.06-1.74Zm.1,5.49c-.79,0-1.53.29-2.21.86-.69.57-1.22,1.41-1.6,2.51-.38,1.1-.56,2.51-.55,4.21,0,1.75.2,3.21.58,4.36.38,1.15.9,2,1.55,2.55.66.55,1.38.82,2.17.82,1.21,0,2.25-.63,3.12-1.88s1.29-3.18,1.28-5.81c0-2.54-.42-4.45-1.23-5.72-.81-1.27-1.85-1.91-3.1-1.9Z"/><path class="uuid-861a7b72-1838-412a-a6a9-d4b92b07a95b" d="m141.05,33.42l12.57-.05.02,4.84c-.68,0-1.1.07-1.28.21-.18.13-.27.34-.27.6s.18.71.54,1.33l1.81,2.98,1.81-2.99c.38-.64.58-1.1.58-1.38,0-.27-.09-.46-.26-.58-.17-.12-.67-.17-1.5-.17l-.02-4.84,9.63-.04.02,4.84c-.83,0-1.44.11-1.83.32-.39.21-.83.65-1.31,1.32l-4.02,5.68,4.41,5.75c.76.98,1.37,1.61,1.81,1.87s1.1.4,1.97.39l.02,4.84-13.25.05-.02-4.84h.75c.59,0,.98-.07,1.16-.21.18-.13.27-.31.27-.53,0-.22-.21-.65-.63-1.3l-2.77-4.27-2.45,4.04c-.51.82-.76,1.35-.76,1.58,0,.22.08.39.25.51.17.12.53.19,1.08.18h.89s.02,4.83.02,4.83l-10.19.04-.02-4.84c.62.01,1.11-.04,1.46-.16.35-.12.66-.29.93-.53.27-.23.63-.69,1.08-1.36l4.66-6.48-3.94-5.2c-.5-.65-.95-1.08-1.36-1.3-.41-.22-1.02-.32-1.83-.32l-.02-4.84Z"/><path class="uuid-861a7b72-1838-412a-a6a9-d4b92b07a95b" d="m183.05,23.31l15.27-.06c1.93,0,3.54.22,4.82.7,1.28.47,2.38,1.19,3.3,2.15.92.96,1.63,2.11,2.14,3.44.5,1.33.76,2.73.76,4.22.01,2.99-.93,5.5-2.82,7.53-1.89,2.03-4.51,3.05-7.85,3.06l-4.93.02.03,6.54c0,.82.05,1.34.15,1.55.13.32.32.55.57.7.26.15.69.22,1.29.22h1.47s.02,4.83.02,4.83l-14.1.05-.02-4.84h.98c.86,0,1.43-.08,1.71-.24s.48-.39.6-.72c.12-.33.18-1,.18-2.02l-.07-19.22c0-1.07-.06-1.77-.18-2.12-.11-.34-.29-.59-.53-.75-.24-.16-.71-.24-1.39-.23h-1.4s-.02-4.83-.02-4.83Zm10.65,5.67l.04,9.92h2.46c1.5-.02,2.61-.21,3.31-.59.7-.38,1.27-.96,1.69-1.74.42-.78.63-1.7.63-2.77,0-1.6-.52-2.87-1.55-3.8-.76-.7-1.89-1.04-3.38-1.04h-3.21Z"/><path class="uuid-861a7b72-1838-412a-a6a9-d4b92b07a95b" d="m220.87,32.51v3.63c1.12-1.41,2.07-2.37,2.88-2.88s1.58-.77,2.33-.77c.68,0,1.28.18,1.82.56.53.37.96.91,1.27,1.61.31.7.47,1.45.48,2.25,0,1.05-.28,2.01-.85,2.86-.57.85-1.38,1.28-2.41,1.29-.28,0-.52-.02-.74-.07s-.67-.21-1.36-.5c-.36-.13-.66-.2-.89-.2-.36,0-.95.28-1.78.83l.04,9.8c0,.84.06,1.38.16,1.63s.27.43.51.55c.24.12.75.17,1.53.17h.91s.02,4.83.02,4.83l-12.78.05-.02-4.84h1.06c.76,0,1.24-.06,1.43-.16.19-.1.33-.28.43-.53.1-.25.14-.81.14-1.68l-.04-11.5h-3.07s-.02-4.8-.02-4.8c2.25-.18,4.59-.89,7.01-2.13h1.95Z"/><path class="uuid-861a7b72-1838-412a-a6a9-d4b92b07a95b" d="m241.66,32.43l.07,18.52c0,.89.05,1.43.13,1.63.08.2.23.35.45.46.21.11.7.16,1.44.16h1.12s.02,4.83.02,4.83l-12.8.05-.02-4.84h1.1c.72,0,1.18-.05,1.38-.15.2-.09.35-.25.44-.46.09-.22.14-.65.14-1.3l-.05-11.95h-3.07s-.02-4.7-.02-4.7c1.09-.07,2.14-.22,3.14-.44,1-.22,1.89-.48,2.68-.79.51-.2,1.14-.54,1.88-1.01h1.97Zm-3.4-11.16c1.05,0,1.94.44,2.69,1.33.74.89,1.12,1.97,1.12,3.24,0,1.29-.36,2.38-1.1,3.27-.74.9-1.63,1.35-2.68,1.35-1.05,0-1.95-.44-2.69-1.33-.74-.89-1.12-1.97-1.12-3.24,0-1.25.37-2.34,1.13-3.25.76-.91,1.64-1.37,2.65-1.38Z"/><path class="uuid-861a7b72-1838-412a-a6a9-d4b92b07a95b" d="m257.11,32.37v3.33c1.57-1.29,2.9-2.17,4.01-2.65,1.11-.47,2.24-.71,3.4-.71,1.34,0,2.53.33,3.56,1.01,1.03.68,1.78,1.53,2.26,2.56.47,1.03.71,2.48.72,4.37l.04,10.42c0,.89.06,1.45.16,1.7s.27.43.49.55c.17.08.66.12,1.49.12h1.02s.02,4.83.02,4.83l-12.16.05-.02-4.84c.92-.02,1.44-.05,1.55-.08.34-.12.57-.31.68-.58.11-.27.16-.84.16-1.73l-.04-9.18c0-1.18-.11-1.95-.32-2.3-.33-.58-.86-.87-1.58-.87-.59,0-1.23.16-1.9.48-.67.32-1.58.97-2.73,1.96l.04,9.93c0,1.08.1,1.75.3,2,.2.25.66.37,1.4.37h.67s.02,4.83.02,4.83l-12.03.05-.02-4.84h.6c.95,0,1.54-.06,1.77-.16.23-.1.4-.28.52-.53.12-.25.17-.74.17-1.48l-.05-11.65h-3.07s-.02-4.82-.02-4.82c2.48-.38,4.79-1.1,6.95-2.16h1.92Z"/><path class="uuid-861a7b72-1838-412a-a6a9-d4b92b07a95b" d="m286.77,24.26l.03,8.59,6.67-.03.02,5.34-6.67.03.03,8.72c0,1.97.1,3.24.27,3.8.17.56.5,1,.97,1.34.62.45,1.33.67,2.14.67,1.42,0,2.83-.57,4.24-1.7l.02,5.36c-1.2.69-2.28,1.17-3.26,1.45s-2.02.42-3.16.43c-1.28,0-2.42-.19-3.41-.58-.99-.39-1.83-.94-2.53-1.67-.7-.72-1.19-1.49-1.46-2.31-.27-.82-.41-2-.42-3.56l-.05-11.93h-3.11s-.02-4.8-.02-4.8c1.1-.44,2.05-1.06,2.83-1.88.78-.81,1.41-1.79,1.88-2.93.47-1.14.79-2.58.97-4.34l4-.02Z"/></svg>